<?xml version="1.0" encoding="utf-8"?>
<svg version="1.1" x="0px" y="0px" viewBox="0 0 100 125" xmlns="http://www.w3.org/2000/svg">
  <g transform="translate(0,-952.36218)">
    <path style="font-size:medium;font-style:normal;font-variant:normal;font-weight:normal;font-stretch:normal;text-indent:0;text-align:start;text-decoration:none;line-height:normal;letter-spacing:normal;word-spacing:normal;text-transform:none;direction:ltr;block-progression:tb;writing-mode:lr-tb;text-anchor:start;baseline-shift:baseline;opacity:1;color:#000000;fill:#000000;fill-opacity:1;stroke:none;stroke-width:3.99999927999999990;marker:none;visibility:visible;display:inline;overflow:visible;enable-background:accumulate;font-family:Sans;-inkscape-font-specification:Sans" d="M 24.8125 16 C 24.8125 16 16.917542 16.60581 12.375 18.09375 A 2.0001996 2.0001996 0 0 0 11 20 L 11 27.09375 C 8.6571436 27.983986 6.3358804 29.042255 4.0625 30.25 A 2.0001996 2.0001996 0 0 0 3 32.03125 L 3 82.03125 A 2.0001996 2.0001996 0 0 0 5.9375 83.78125 C 12.850652 80.10865 19.954479 77.97465 26.96875 78.03125 A 2.0001996 2.0001996 0 0 0 27 78.03125 C 35.520487 78.03125 43.319819 80.2453 48.0625 82.75 A 2.0001996 2.0001996 0 0 0 49 83 L 51 83 A 2.0001996 2.0001996 0 0 0 51.9375 82.75 C 56.685768 80.2424 64.484162 78 73 78 A 2.0001996 2.0001996 0 0 0 73.03125 78 C 80.045521 77.943 87.149348 80.0774 94.0625 83.75 A 2.0001996 2.0001996 0 0 0 97 82 L 97 32 A 2.0001996 2.0001996 0 1 0 93 32 L 93 78.84375 C 86.538948 75.81605 79.810185 73.9507 73 74 C 72.9896 74.0001 72.97915 73.9999 72.96875 74 C 66.850165 74.006839 61.191446 75.081995 56.46875 76.625 C 62.060023 73.608611 68.293286 72 75 72 C 79.15287 72 82.52999 72.64685 86.375 73.90625 A 2.0001996 2.0001996 0 0 0 89 72 L 89 20 A 2.0001996 2.0001996 0 0 0 87.625 18.09375 C 83.492628 16.74016 79.576567 16 75 16 C 65.766127 16 57.222004 18.985613 50 24.125 C 42.778311 18.985815 34.234383 16 25 16 A 2.0001996 2.0001996 0 0 0 24.8125 16 z M 25 20 C 33.527417 20 41.314992 22.79099 48 27.65625 L 48 74.59375 C 41.203204 70.31442 33.375247 68 25 68 C 21.39826 68 18.210311 68.5809 15 69.4375 L 15 21.59375 C 18.725282 20.66448 24.705193 20.02875 25 20 z M 75 20 C 78.640644 20 81.713434 20.59242 85 21.5625 L 85 69.4375 C 81.789689 68.5809 78.60174 68 75 68 C 66.592533 68 58.812947 70.4391 52 74.75 L 52 27.71875 C 58.689794 22.84447 66.46317 20 75 20 z M 11 31.4375 L 11 72 A 2.0001996 2.0001996 0 0 0 13.625 73.875 C 17.47001 72.6156 20.84713 72 25 72 C 31.756272 72 38.033807 73.605523 43.65625 76.65625 C 38.90841 75.099388 33.199429 74.034906 27.03125 74.03125 L 27 74.03125 C 20.189815 73.98225 13.461052 75.8473 7 78.875 L 7 33.3125 C 8.3230226 32.641322 9.6650252 32.015282 11 31.4375 z " transform="translate(0,952.36218)"/>
  </g>
</svg>